<?xml version="1.0" standalone="no"?>
<!DOCTYPE svg PUBLIC "-//W3C//DTD SVG 20010904//EN"
 "http://www.w3.org/TR/2001/REC-SVG-20010904/DTD/svg10.dtd">
<svg version="1.0" xmlns="http://www.w3.org/2000/svg"
 width="1147.000000pt" height="1147.000000pt" viewBox="0 0 1147.000000 1147.000000"
 preserveAspectRatio="xMidYMid meet">
<metadata>
Created by potrace 1.11, written by Peter Selinger 2001-2013
</metadata>
<g transform="translate(0.000000,1147.000000) scale(0.100000,-0.100000)"
fill="#000000" stroke="none">
<path d="M2105 10144 c-320 -43 -629 -150 -900 -311 -663 -393 -1104 -1086
-1186 -1861 -17 -166 -7 -506 20 -657 109 -618 445 -1158 961 -1549 147 -110
476 -318 1325 -833 182 -110 685 -417 1119 -682 433 -264 791 -481 795 -481 3
0 21 89 39 198 60 365 153 744 262 1074 296 888 757 1592 1407 2145 247 211
620 456 922 608 51 25 90 50 85 55 -5 4 -205 127 -444 273 -239 145 -682 415
-985 599 -991 603 -1929 1151 -2130 1244 -180 83 -427 151 -655 179 -154 19
-494 18 -635 -1z m547 -750 c156 -20 320 -62 434 -111 97 -42 360 -193 894
-513 296 -177 1256 -760 1477 -897 l72 -44 -77 -67 c-388 -334 -690 -679 -965
-1098 -288 -439 -493 -870 -688 -1449 -47 -137 -83 -229 -90 -227 -48 12
-1698 1018 -2098 1279 -208 137 -289 201 -406 325 -421 448 -555 1122 -338
1708 209 565 696 979 1276 1084 45 9 98 17 117 19 91 10 280 5 392 -9z"/>
<path d="M7220 7257 c-368 -202 -691 -390 -683 -398 4 -4 476 -293 1048 -642
1661 -1013 1733 -1057 1775 -1099 74 -74 73 -170 -3 -270 -65 -85 -143 -102
-247 -55 -30 13 -694 414 -1474 891 -780 476 -1422 866 -1425 866 -8 0 -180
-191 -258 -285 -425 -514 -748 -1166 -928 -1870 -78 -305 -153 -724 -142 -793
4 -18 20 -56 38 -83 26 -41 54 -63 163 -131 72 -45 370 -230 661 -411 1403
-873 2244 -1372 2502 -1484 200 -86 420 -146 638 -173 132 -17 429 -14 565 5
1045 146 1866 981 2005 2038 17 137 20 414 4 555 -39 353 -175 727 -372 1021
-125 187 -341 418 -513 549 -196 148 -901 588 -2174 1357 -366 221 -696 421
-734 444 -87 53 -156 81 -204 81 -28 -1 -87 -28 -242 -113z"/>
</g>
</svg>
